<svg width="75" height="75" viewBox="0 0 75 75" fill="none" xmlns="http://www.w3.org/2000/svg">
<path d="M65.625 51.9812V26.9812C65.6239 25.8852 65.3346 24.8088 64.7861 23.8599C64.2376 22.911 63.4492 22.123 62.5 21.575L40.625 9.07498C39.6749 8.52643 38.5971 8.23764 37.5 8.23764C36.4029 8.23764 35.3251 8.52643 34.375 9.07498L12.5 21.575C11.5508 22.123 10.7624 22.911 10.2139 23.8599C9.66545 24.8088 9.37612 25.8852 9.375 26.9812V51.9812C9.37612 53.0773 9.66545 54.1537 10.2139 55.1026C10.7624 56.0515 11.5508 56.8395 12.5 57.3875L34.375 69.8875C35.3251 70.436 36.4029 70.7248 37.5 70.7248C38.5971 70.7248 39.6749 70.436 40.625 69.8875L62.5 57.3875C63.4492 56.8395 64.2376 56.0515 64.7861 55.1026C65.3346 54.1537 65.6239 53.0773 65.625 51.9812Z" fill="#EEF6FF" stroke="#004E9E" stroke-width="3" stroke-linecap="round" stroke-linejoin="round"/>
<path d="M10.2173 23.7313L37.4985 39.5125L64.7798 23.7313" stroke="#004E9E" stroke-width="3" stroke-linecap="round" stroke-linejoin="round"/>
<path d="M37.5 70.9813V39.4813" stroke="#004E9E" stroke-width="3" stroke-linecap="round" stroke-linejoin="round"/>
</svg>
