<svg width="66" height="63" viewBox="0 0 66 63" fill="none" xmlns="http://www.w3.org/2000/svg">
<path d="M23.7178 61.022C25.4437 61.022 26.8428 59.6229 26.8428 57.897C26.8428 56.1711 25.4437 54.772 23.7178 54.772C21.9919 54.772 20.5928 56.1711 20.5928 57.897C20.5928 59.6229 21.9919 61.022 23.7178 61.022Z" stroke="#004E9E" stroke-width="3" stroke-linecap="round" stroke-linejoin="round"/>
<path d="M54.9678 61.022C56.6937 61.022 58.0928 59.6229 58.0928 57.897C58.0928 56.1711 56.6937 54.772 54.9678 54.772C53.2419 54.772 51.8428 56.1711 51.8428 57.897C51.8428 59.6229 53.2419 61.022 54.9678 61.022Z" stroke="#004E9E" stroke-width="3" stroke-linecap="round" stroke-linejoin="round"/>
<path d="M64.5 16.5H16.5H16L23.5 45L58.5 44.5L64.5 16.5Z" fill="#EEF6FF" stroke="#A8A8A8"/>
<path d="M1.84277 1.64703H13.2064L20.82 40.7002C21.0798 42.043 21.7914 43.2492 22.8301 44.1077C23.8689 44.9662 25.1686 45.4222 26.5019 45.396H54.1155C55.4487 45.4222 56.7485 44.9662 57.7872 44.1077C58.826 43.2492 59.5375 42.043 59.7973 40.7002L64.3428 16.23H16.0473" stroke="#004E9E" stroke-width="3" stroke-linecap="round" stroke-linejoin="round"/>
</svg>
