<svg width="77" height="77" viewBox="0 0 77 77" fill="none" xmlns="http://www.w3.org/2000/svg">
<path d="M57.3731 31.7381H53.6991C52.6082 27.6703 50.354 23.9787 47.1928 21.0827C44.0315 18.1867 40.0899 16.2025 35.8158 15.3555C31.5418 14.5085 27.1066 14.8327 23.0144 16.2912C18.9221 17.7498 15.3368 20.2842 12.6659 23.6064C9.99501 26.9287 8.34557 30.9057 7.90504 35.0854C7.4645 39.2651 8.25052 43.48 10.1738 47.2511C12.0971 51.0222 15.0804 54.1983 18.785 56.4186C22.4895 58.6388 26.7666 59.8141 31.1303 59.811H57.3731C61.2398 59.811 64.9481 58.3322 67.6823 55.6998C70.4165 53.0675 71.9525 49.4973 71.9525 45.7746C71.9525 42.0519 70.4165 38.4816 67.6823 35.8493C64.9481 33.2169 61.2398 31.7381 57.3731 31.7381Z" fill="#EEF6FF" stroke="#004E9E" stroke-width="3" stroke-linecap="round" stroke-linejoin="round"/>
</svg>
