<svg width="24" height="24" viewBox="0 0 24 24" fill="none" xmlns="http://www.w3.org/2000/svg">
<g clip-path="url(#clip0_345_45)">
<path d="M20.958 9.7749C20.958 16.7749 11.958 22.7749 11.958 22.7749C11.958 22.7749 2.95801 16.7749 2.95801 9.7749C2.95801 7.38795 3.90622 5.09877 5.59405 3.41094C7.28187 1.72311 9.57106 0.774902 11.958 0.774902C14.345 0.774902 16.6341 1.72311 18.322 3.41094C20.0098 5.09877 20.958 7.38795 20.958 9.7749Z" stroke="#272727" stroke-width="2" stroke-linecap="round" stroke-linejoin="round"/>
<path d="M11.958 12.7749C13.6149 12.7749 14.958 11.4318 14.958 9.7749C14.958 8.11805 13.6149 6.7749 11.958 6.7749C10.3012 6.7749 8.95801 8.11805 8.95801 9.7749C8.95801 11.4318 10.3012 12.7749 11.958 12.7749Z" stroke="#272727" stroke-width="2" stroke-linecap="round" stroke-linejoin="round"/>
</g>
<defs>
<clipPath id="clip0_345_45">
<rect width="24" height="24" fill="white"/>
</clipPath>
</defs>
</svg>
