<svg width="23" height="22" viewBox="0 0 23 22" fill="none" xmlns="http://www.w3.org/2000/svg">
<path d="M21.0746 15.9201V18.9201C21.0758 19.1986 21.0187 19.4743 20.9072 19.7294C20.7956 19.9846 20.6319 20.2137 20.4267 20.402C20.2215 20.5902 19.9792 20.7336 19.7154 20.8228C19.4516 20.912 19.172 20.9452 18.8946 20.9201C15.8175 20.5857 12.8616 19.5342 10.2646 17.8501C7.84847 16.3148 5.79998 14.2663 4.26464 11.8501C2.57462 9.2413 1.52288 6.27109 1.19464 3.1801C1.16965 2.90356 1.20252 2.62486 1.29114 2.36172C1.37977 2.09859 1.52221 1.85679 1.70941 1.65172C1.8966 1.44665 2.12444 1.28281 2.37843 1.17062C2.63242 1.05843 2.90698 1.00036 3.18464 1.0001H6.18464C6.66995 0.995321 7.14043 1.16718 7.5084 1.48363C7.87637 1.80008 8.11672 2.23954 8.18464 2.7201C8.31126 3.68016 8.54609 4.62282 8.88464 5.5301C9.01918 5.88802 9.0483 6.27701 8.96855 6.65098C8.88879 7.02494 8.7035 7.36821 8.43464 7.6401L7.16464 8.9101C8.5882 11.4136 10.6611 13.4865 13.1646 14.9101L14.4346 13.6401C14.7065 13.3712 15.0498 13.1859 15.4238 13.1062C15.7977 13.0264 16.1867 13.0556 16.5446 13.1901C17.4519 13.5286 18.3946 13.7635 19.3546 13.8901C19.8404 13.9586 20.284 14.2033 20.6012 14.5776C20.9183 14.9519 21.0868 15.4297 21.0746 15.9201Z" stroke="black" stroke-width="2" stroke-linecap="round" stroke-linejoin="round"/>
</svg>
